<?xml version="1.0" encoding="UTF-8" standalone="no"?>
<svg xmlns="http://www.w3.org/2000/svg" xmlns:xlink="http://www.w3.org/1999/xlink" width="264" height="162" viewBox="0 0 264 162" id="svg2">
    <defs id="defs78">
        <clipPath id="jagged-edge">
            <path id="path4141" d="M0 0v152l12 10 12-10 12 10 12-10 12 10 12-10 12 10 12-10 12 10 12-10 12 10 12-10 12 10 12-10 12 10 12-10 12 10 12-10 12 10 12-10 12 10 12-10V0z"/>
        </clipPath>
    </defs>
    <g id="screenshot" clip-path="url(#jagged-edge)">
        <path d="M.5 162.25l263-.5V.5H.5z" id="background" fill="#fff"/>
        <path d="M12 162.496V29h204v133.496z" id="article" fill="#e5e5e5"/>
        <path d="M253 22c0-7.732-6.268-14-14-14s-14 6.268-14 14 6.268 14 14 14 14-6.268 14-14z" id="logo" fill="#e5e5e5"/>
        <path d="M226 163.807V58h25v105.807h-25z" id="sidebar" fill="#e5e5e5"/>
        <g id="personal-tools" fill="#e5e5e5">
            <path id="path4149" transform="matrix(-1 0 0 1 264 0)" d="M233 5h26v6h-26V5zm-24 0h22v6h-22zm-24 0h22v6h-22zm-23 0h13v6h-13zm15 0h6v6h-6zm-23 0h6v6h-6z"/>
        </g>
        <g id="search" fill="#e5e5e5">
            <path transform="matrix(-1 0 0 1 264 0)" d="M258 16v4h-92v-4h92m1-1h-94v6h94v-6z" id="path5717"/>
            <path transform="matrix(-1 0 0 1 264 0)" d="M168 17h2v2h-2z" id="icon"/>
        </g>
        <path d="M226 45v-5h25v5h-25z" id="sitename" fill="#e5e5e5"/>
        <path id="border" d="M264 0v162H0V0zm-1 1H1v150.533l11 9.166 12-10 12 10 12-10 12 10 12-10 12 10 12-10 12 10 12-10 12 10 12-10 12 10 12-10 12 10 12-10 12 10 12-10 12 10 12-10 12 10 11-9.168z" fill="#e5e5e5"/>
        <path transform="scale(-1 1)" id="rect4817" fill="#36c" d="M-199 72h175v15h-175z"/>
        <path transform="scale(-1 1)" id="rect4728" fill="#999" d="M-202 48h26v6h-26z"/>
        <g id="g4801" transform="matrix(-1 0 0 1 264 0)" fill="#999">
            <path id="path4735" d="M72.582 62.304q-.57.976-.845 1.932-.276.955-.276 1.936 0 .98.277 1.945.28.96.845 1.932h-.68q-.636-1-.954-1.963-.315-.964-.315-1.915 0-.947.315-1.906.314-.96.955-1.962h.68z"/>
            <path id="path4739" d="M104.918 62.304h.68q.636 1.002.95 1.962.32.96.32 1.906 0 .95-.32 1.915-.314.964-.95 1.962h-.68q.565-.973.84-1.933.28-.964.28-1.945 0-.98-.28-1.936-.275-.956-.84-1.932z"/>
            <path id="rect4752" d="M88 63h1v6h-1z"/>
            <path id="rect4754" d="M75 64h10v4H75z"/>
            <rect style="isolation:auto;mix-blend-mode:normal" id="rect4754-3" width="11" height="4" x="92" y="64" rx=".166" ry=".107" color="#000" overflow="visible" fill-rule="evenodd" stroke-linecap="round" stroke-linejoin="round"/>
            <path id="rect4754-3-6" d="M110 64h125v4H110z"/>
        </g>
        <path transform="scale(-1 1)" id="rect4728-7" fill="#999" d="M-202 127h26v6h-26z"/>
        <use transform="translate(0 28)" height="100%" width="100%" id="use4809" xlink:href="#g4801"/>
        <use height="100%" width="100%" transform="translate(0 42)" id="use4813" xlink:href="#g4801"/>
        <use height="100%" width="100%" transform="translate(0 14)" id="use4815" xlink:href="#g4801" fill="#fff"/>
        <use height="100%" width="100%" transform="translate(0 78)" id="use4927" xlink:href="#g4801"/>
    </g>
</svg>
