<?xml version="1.0" encoding="UTF-8" standalone="no"?>
<svg xmlns="http://www.w3.org/2000/svg" xmlns:xlink="http://www.w3.org/1999/xlink" width="264" height="162" viewBox="0 0 264 162" id="svg2">
    <defs id="defs78">
        <clipPath id="jagged-edge">
            <path id="path5050" d="M0 0v152l12 10 12-10 12 10 12-10 12 10 12-10 12 10 12-10 12 10 12-10 12 10 12-10 12 10 12-10 12 10 12-10 12 10 12-10 12 10 12-10 12 10 12-10V0z"/>
        </clipPath>
    </defs>
    <g id="screenshot" clip-path="url(#jagged-edge)">
        <path fill="#fff" d="M263.5 162.25l-263-.5V.5h263z" id="background"/>
        <path fill="#e5e5e5" d="M252 162.496V29H48v133.496z" id="article"/>
        <path fill="#e5e5e5" d="M11 22c0-7.732 6.268-14 14-14s14 6.268 14 14-6.268 14-14 14-14-6.268-14-14z" id="logo"/>
        <path fill="#e5e5e5" d="M38 163.807V58H13v105.807h25z" id="sidebar"/>
        <g fill="#e5e5e5" id="personal-tools">
            <path id="path5058" d="M233 5h26v6h-26V5zm-24 0h22v6h-22zm-24 0h22v6h-22zm-23 0h13v6h-13zm15 0h6v6h-6zm-23 0h6v6h-6z"/>
        </g>
        <g fill="#e5e5e5" id="search">
            <path d="M258 16v4h-92v-4h92m1-1h-94v6h94v-6z" id="path5717"/>
            <path d="M168 17h2v2h-2z" id="icon"/>
        </g>
        <path fill="#e5e5e5" d="M38 45v-5H13v5h25z" id="sitename"/>
        <path fill="#e5e5e5" id="border" d="M0 0v162h264V0zm1 1h262v150.533l-11 9.166-12-10-12 10-12-10-12 10-12-10-12 10-12-10-12 10-12-10-12 10-12-10-12 10-12-10-12 10-12-10-12 10-12-10-12 10-12-10-12 10-11-9.168z"/>
        <path d="M65 72h175v15H65z" id="rect4817" fill="#36c"/>
        <path d="M62 48h26v6H62z" id="rect4728" fill="#999"/>
        <g id="g4801" fill="#999">
            <path d="M72.582 62.304q-.57.976-.845 1.932-.276.955-.276 1.936 0 .98.278 1.945.28.96.845 1.932h-.68q-.636-1-.954-1.964-.316-.964-.316-1.915 0-.946.315-1.905.313-.96.954-1.962h.68z" id="path4735"/>
            <path d="M104.918 62.304h.68q.636 1.002.95 1.962.32.96.32 1.906 0 .95-.32 1.915-.314.964-.95 1.962h-.68q.565-.974.84-1.934.28-.964.28-1.945 0-.98-.28-1.935-.275-.956-.84-1.932z" id="path4739"/>
            <path d="M88 63h1v6h-1z" id="rect4752"/>
            <path d="M75 64h10v4H75z" id="rect4754"/>
            <rect overflow="visible" ry=".107" rx=".166" y="64" x="92" height="4" width="11" id="rect4754-3" style="isolation:auto;mix-blend-mode:normal" color="#000" fill-rule="evenodd" stroke-linecap="round" stroke-linejoin="round"/>
            <path d="M110 64h125v4H110z" id="rect4754-3-6"/>
        </g>
        <path d="M62 127h26v6H62z" id="rect4728-7" fill="#999"/>
        <use xlink:href="#g4801" id="use4809" width="100%" height="100%" transform="translate(0 28)"/>
        <use xlink:href="#g4801" id="use4813" transform="translate(0 42)" width="100%" height="100%"/>
        <use xlink:href="#g4801" id="use4815" transform="translate(0 14)" width="100%" height="100%" fill="#fff"/>
        <use xlink:href="#g4801" id="use4927" transform="translate(0 78)" width="100%" height="100%"/>
    </g>
</svg>
