<?xml version="1.0" encoding="UTF-8"?>
<svg xmlns="http://www.w3.org/2000/svg" xmlns:xlink="http://www.w3.org/1999/xlink" width="264" height="162" viewBox="0 0 264 162">
    <defs>
        <clipPath id="jagged-edge">
            <path d="M0 0v152l12 10 12-10 12 10 12-10 12 10 12-10 12 10 12-10 12 10 12-10 12 10 12-10 12 10 12-10 12 10 12-10 12 10 12-10 12 10 12-10 12 10 12-10V0z"/>
        </clipPath>
    </defs>
    <g fill="#eaecf0" clip-path="url(#jagged-edge)" transform="matrix(-1 0 0 1 264 0)">
        <path id="background" fill="#fff" d="M0 0h264v162H0"/>
        <path id="logo" d="M11 22c0-8 6-14 14-14s14 6 14 14-6 14-14 14-14-6-14-14m27 23v-5H13v5h25"/>
        <path id="sidebar" d="M38 163V58H13v106h25"/>
        <path id="personal-tools" d="M233 5h26v6h-26V5zm-24 0h22v6h-22zm-24 0h22v6h-22zm-23 0h13v6h-13zm15 0h6v6h-6zm-23 0h6v6h-6z"/>
        <g id="search">
            <path id="input" d="M258 16v4h-92v-4h92m1-1h-94v6h94v-6z"/>
            <path id="icon" d="M168 17h2v2h-2z"/>
        </g>
        <path id="article" d="M252 162V29H48v133z"/>
        <path id="border" d="M0 0v162h264V0zm1 1h262v150.533l-11 9.166-12-10-12 10-12-10-12 10-12-10-12 10-12-10-12 10-12-10-12 10-12-10-12 10-12-10-12 10-12-10-12 10-12-10-12 10-12-10-12 10-11-9z"/>
        <path fill="#36c" d="M65 72h175v15H65z"/>
        <path fill="#a2a9b1" d="M62 48h26v6H62z"/>
        <g id="g" fill="#a2a9b1">
            <path d="M72.582 62.304q-.57.976-.845 1.932-.276.955-.276 1.936 0 .98.278 1.945.28.96.845 1.932h-.68q-.636-1-.954-1.964-.316-.964-.316-1.915 0-.946.315-1.905.313-.96.954-1.962h.68zm32.336 0h.68q.636 1.002.95 1.962.32.96.32 1.906 0 .95-.32 1.915-.314.964-.95 1.962h-.68q.565-.974.84-1.934.28-.964.28-1.945 0-.98-.28-1.935-.275-.956-.84-1.932zM88 63h1v6h-1zm-13 1h10v4H75z"/>
            <rect width="11" height="4" x="92" y="64" fill-rule="evenodd" overflow="visible" ry=".107" rx=".166" style="isolation:auto;mix-blend-mode:normal" color="#000" stroke-linecap="round" stroke-linejoin="round"/>
            <path d="M110 64h125v4H110z"/>
        </g>
        <path fill="#a2a9b1" d="M62 127h26v6H62z"/>
        <use width="100%" height="100%" xlink:href="#g" transform="translate(0 28)"/>
        <use width="100%" height="100%" xlink:href="#g" transform="translate(0 42)"/>
        <use width="100%" height="100%" fill="#fff" xlink:href="#g" transform="translate(0 14)"/>
        <use width="100%" height="100%" xlink:href="#g" transform="translate(0 78)"/>
    </g>
</svg>
